<mxfile host="app.diagrams.net" modified="2021-10-14T07:56:49.219Z" agent="5.0 (Macintosh; Intel Mac OS X 10_15_7) AppleWebKit/537.36 (KHTML, like Gecko) Chrome/94.0.4606.81 Safari/537.36" etag="jKfk4GxOKe9E4NEUh2xg" version="15.5.0" type="github">
  <diagram id="KQ8GuIjHnvecHB6I-Bi0" name="Page-1">
    <mxGraphModel dx="2025" dy="1072" grid="1" gridSize="10" guides="1" tooltips="1" connect="1" arrows="1" fold="1" page="1" pageScale="1" pageWidth="827" pageHeight="1169" math="0" shadow="0">
      <root>
        <mxCell id="0" />
        <mxCell id="1" parent="0" />
      </root>
    </mxGraphModel>
  </diagram>
</mxfile>
